<svg xmlns="http://www.w3.org/2000/svg" width="65" height="68" viewBox="0 0 65 68"><defs><style>.cls-1{fill:#3a4f63;fill-opacity:0;stroke:#d0d0d0;stroke-linejoin:round;stroke-width:2px;fill-rule:evenodd}</style></defs><path id="_1.svg" data-name="1.svg" class="cls-1" d="M1034.99 610H972c3.722-15.268 22.782-6.35 23.684-24.832h-5.013v-.293c.3-.389.589-.78.884-1.169l-5.9-1.462c1.438-5.529.7-7.2-.3-13.163-1.236-7.388 2.632-15.626 5.6-19.6a10.07 10.07 0 0 1 6.192-3.51l3.244.292c1.71-.719 3.14-2.961 7.08-2.047 8.5 1.976 12.35 10.6 13.85 19.6l-1.77 14.625 1.77 3.8c-1.96.487-3.93.974-5.89 1.462.28 1.466.72.8.29 1.462h-4.42c.539 17.424 20.209 10.601 23.689 24.835z" transform="translate(-971 -543)"/></svg>