<svg id="_4" data-name="4" xmlns="http://www.w3.org/2000/svg" width="44" height="44" viewBox="0 0 44 44">
  <metadata><?xpacket begin="﻿" id="W5M0MpCehiHzreSzNTczkc9d"?>
<x:xmpmeta xmlns:x="adobe:ns:meta/" x:xmptk="Adobe XMP Core 5.6-c142 79.160924, 2017/07/13-01:06:39        ">
   <rdf:RDF xmlns:rdf="http://www.w3.org/1999/02/22-rdf-syntax-ns#">
      <rdf:Description rdf:about=""/>
   </rdf:RDF>
</x:xmpmeta>
                                                                                                    
                                                                                                    
                                                                                                    
                                                                                                    
                                                                                                    
                                                                                                    
                                                                                                    
                                                                                                    
                                                                                                    
                                                                                                    
                                                                                                    
                                                                                                    
                                                                                                    
                                                                                                    
                                                                                                    
                                                                                                    
                                                                                                    
                                                                                                    
                                                                                                    
                                                                                                    
                           
<?xpacket end="w"?></metadata>
<defs>
    <style>
      .cls-1, .cls-2 {
        fill-rule: evenodd;
      }

      .cls-2 {
        opacity: 0.5;
      }
    </style>
  </defs>
  <path id="time_ico" data-name="time ico" class="cls-1" d="M22,18a4,4,0,1,1-4,4A4,4,0,0,1,22,18ZM22,4A18,18,0,1,0,40,22,18,18,0,0,0,22,4Zm0,34A16,16,0,1,1,38,22,16,16,0,0,1,22,38Zm0-14a2,2,0,1,1,2-2A2,2,0,0,1,22,24Z"/>
  <path class="cls-1" d="M22,0A22,22,0,1,0,44,22,22,22,0,0,0,22,0ZM41.95,21H24.414l12.4-12.4A19.938,19.938,0,0,1,41.95,21ZM22,42A20,20,0,1,1,35.4,7.188l-14.1,14.1A1,1,0,0,0,22,23H41.95A19.984,19.984,0,0,1,22,42Z"/>
  <path class="cls-2" d="M23,20L37,7a23.008,23.008,0,0,1,5,7,18.57,18.57,0,0,1,1,8H23V20Z"/>
</svg>
