<?xml version="1.0" encoding="utf-8"?>
<!-- Generator: Adobe Illustrator 23.0.1, SVG Export Plug-In . SVG Version: 6.00 Build 0)  -->
<svg version="1.1" id="Capa_1" xmlns="http://www.w3.org/2000/svg" xmlns:xlink="http://www.w3.org/1999/xlink" x="0px" y="0px"
	 viewBox="0 0 474.2 414.5" style="enable-background:new 0 0 474.2 414.5;" xml:space="preserve">
<g>
	<g>
		<path d="M465.9,236.2c-4.8,0-8.8,3.9-8.8,8.8v25.8c0,28.9-11.3,56-31.7,76.4l-16.6,16.6c-1.7,1.6-2.6,3.9-2.6,6.2v35.7
			c0,4.8,3.9,8.8,8.8,8.8s8.8-3.9,8.8-8.8v-32.1l14.1-14c23.8-23.7,36.9-55.3,36.9-88.8V245C474.7,240.2,470.7,236.2,465.9,236.2z"
			/>
	</g>
</g>
<g>
	<g>
		<path d="M472.1,207.6c-1.6-1.6-3.9-2.6-6.2-2.6c-2.3,0-4.6,0.9-6.2,2.6c-1.6,1.6-2.6,3.9-2.6,6.2c0,2.3,0.9,4.6,2.6,6.2
			c1.6,1.6,3.9,2.6,6.2,2.6c2.3,0,4.6-0.9,6.2-2.6c1.6-1.6,2.6-3.9,2.6-6.2C474.7,211.5,473.7,209.3,472.1,207.6z"/>
	</g>
</g>
<g>
	<g>
		<path d="M291.2,363.8l-25.7-25.7c-11.9-11.9-20.8-26.2-26.1-42c-2.5,6.5-7,12.4-12,17.5c6.2,13.7,14.8,26.2,25.6,37l23.2,23.1
			v32.1c0,4.8,3.9,8.8,8.8,8.8s8.8-3.9,8.8-8.8V370C293.8,367.6,292.9,365.4,291.2,363.8z"/>
		<path d="M442.1,105.8c-5.5,0-10.7,1.4-15.2,3.8c-2-16.1-15.7-28.7-32.3-28.7c-5.6,0-10.9,1.4-15.5,3.9c-2.9-15-16.1-26.4-32-26.4
			c-15.9,0-29.1,11.4-32,26.4c-4.6-2.5-9.9-3.9-15.5-3.9c-18,0-32.6,14.6-32.6,32.6V199c-0.1-0.1-0.2-0.3-0.3-0.4
			c0,1.2-0.2,2.3-1,3.3c-0.1,7.3-0.6,14.7-3.8,21.4c-1,2.1-2.4,3.9-4,5.6l2.4,10c1.5,6.1,7.1,10,13.4,9.3
			c6.3-0.8,10.8-5.9,10.8-12.2V113.5c0-8.3,6.7-15,15-15c7.8,0,14.2,5.9,14.9,13.5v64.4c0,4.8,3.9,8.8,8.8,8.8c0,0,0,0,0,0
			c0,0,0,0,0,0c4.8,0,8.8-3.9,8.8-8.8v-62.8c0-0.7,0-1.5-0.1-2.2V91c0-8.3,6.7-15,15-15c8.3,0,15,6.7,15,15v20.3
			c-0.1,0.7-0.1,1.5-0.1,2.2v62.8c0,4.8,3.9,8.8,8.8,8.8c0,0,0,0,0,0s0,0,0,0c4.8,0,8.8-3.9,8.8-8.8V112c0.8-7.6,7.2-13.5,14.9-13.5
			c8.3,0,15,6.7,15,15l-0.1,62.8c0,4.8,3.9,8.8,8.8,8.8c0,0,0,0,0,0c0,0,0,0,0,0c4.8,0,8.8-3.9,8.8-8.8v-39.5
			c0.8-7.6,7.2-13.5,14.9-13.5c8.3,0,15,6.7,15,15v41c0,4.8,3.9,8.8,8.8,8.8s8.8-3.9,8.8-8.8v-41C474.7,120.4,460,105.8,442.1,105.8
			z"/>
	</g>
</g>
<g>
	<g>
		<path d="M0,245l0,25.8c0,33.6,13.1,65.1,36.9,88.8l14.1,14v32.1c0,4.8,3.9,8.8,8.8,8.8s8.8-3.9,8.8-8.8V370c0-2.3-0.9-4.6-2.6-6.2
			l-16.6-16.6c-20.5-20.4-31.7-47.5-31.7-76.4V245c0-4.8-3.9-8.8-8.8-8.8C3.9,236.2,0,240.2,0,245z"/>
	</g>
</g>
<g>
	<g>
		<path d="M0,213.8c0,2.3,0.9,4.6,2.6,6.2c1.6,1.6,3.9,2.6,6.2,2.6s4.6-0.9,6.2-2.6c1.6-1.6,2.6-3.9,2.6-6.2c0-2.3-0.9-4.6-2.6-6.2
			c-1.6-1.6-3.9-2.6-6.2-2.6s-4.6,0.9-6.2,2.6C0.9,209.3,0,211.5,0,213.8z"/>
	</g>
</g>
<g>
	<g>
		<path d="M0,138.4l0,41c0,4.8,3.9,8.8,8.8,8.8s8.8-3.9,8.8-8.8v-41c0-8.3,6.7-15,15-15c7.8,0,14.2,5.9,14.9,13.5v39.5
			c0,4.8,3.9,8.8,8.8,8.8c0,0,0,0,0,0c0,0,0,0,0,0c4.8,0,8.8-3.9,8.8-8.8l-0.1-62.8c0-8.3,6.7-15,15-15c7.8,0,14.2,5.9,14.9,13.5
			v64.4c0,4.8,3.9,8.8,8.8,8.8c0,0,0,0,0,0s0,0,0,0c4.8,0,8.8-3.9,8.8-8.8v-62.8c0-0.7,0-1.5-0.1-2.2V91c0-8.3,6.7-15,15-15
			c8.3,0,15,6.7,15,15v20.3c-0.1,0.7-0.1,1.5-0.1,2.2v62.8c0,4.8,3.9,8.8,8.8,8.8c0,0,0,0,0,0s0,0,0,0c4.8,0,8.8-3.9,8.8-8.8V112
			c0.8-7.6,7.2-13.5,14.9-13.5c8.3,0,15,6.7,15,15V236c0,6.3,4.5,11.4,10.8,12.2c6.3,0.8,11.9-3.1,13.4-9.3l6.4-26.3
			c1.9-7.9,9.8-13,17.8-11.6c4.2,0.7,7.7,3,10.1,6.5c2.4,3.5,3.2,7.7,2.4,11.8l-12.5,63.2c-4.2,21.1-14.4,40.3-29.7,55.5l-25.7,25.7
			c-1.7,1.6-2.6,3.9-2.6,6.2v35.7c0,4.8,3.9,8.8,8.8,8.8s8.8-3.9,8.8-8.8v-32.1l23.2-23.1c17.7-17.7,29.7-40,34.5-64.6l12.5-63.2
			c1.7-8.8-0.1-17.7-5.2-25.1c-5.1-7.4-12.7-12.3-21.6-13.9c-13.7-2.4-27,4-34,15.3v-85.4c0-18-14.6-32.6-32.6-32.6
			c-5.6,0-10.9,1.4-15.5,3.9c-2.9-15-16.1-26.4-32-26.4s-29.1,11.4-32,26.4c-4.6-2.5-9.9-3.9-15.5-3.9c-16.6,0-30.4,12.5-32.3,28.7
			c-4.5-2.4-9.7-3.8-15.2-3.8C14.6,105.8,0,120.4,0,138.4z"/>
	</g>
</g>
<g>
	<g>
		<path d="M267.7,48.9L221.4,2.6c-3.4-3.4-9-3.4-12.4,0c-3.4,3.4-3.4,9,0,12.4l46.3,46.3c1.7,1.7,4,2.6,6.2,2.6
			c2.2,0,4.5-0.9,6.2-2.6C271.1,57.9,271.1,52.3,267.7,48.9z"/>
	</g>
</g>
<g>
	<g>
		<path d="M236.6,72.4h-21.4c-4.8,0-8.8,3.9-8.8,8.8s3.9,8.8,8.8,8.8h21.4c4.8,0,8.8-3.9,8.8-8.8S241.5,72.4,236.6,72.4z"/>
	</g>
</g>
<g>
	<g>
		<path d="M287.2,0c-4.8,0-8.8,3.9-8.8,8.8v22.1c0,4.8,3.9,8.8,8.8,8.8c4.8,0,8.8-3.9,8.8-8.8V8.8C295.9,3.9,292,0,287.2,0z"/>
	</g>
</g>
</svg>
