<?xml version="1.0" encoding="iso-8859-1"?>
<!-- Generator: Adobe Illustrator 19.0.0, SVG Export Plug-In . SVG Version: 6.00 Build 0)  -->
<svg version="1.1" id="Capa_1" xmlns="http://www.w3.org/2000/svg" xmlns:xlink="http://www.w3.org/1999/xlink" x="0px" y="0px"
	 viewBox="0 0 512 512" style="enable-background:new 0 0 512 512;" xml:space="preserve">
<g>
	<g>
		<path d="M501.961,112.53H342.418c-5.544,0-10.039,4.496-10.039,10.039s4.496,10.039,10.039,10.039h66.164
			c4.674,43.784,39.557,78.666,83.34,83.34v80.105c-43.784,4.674-78.665,39.557-83.34,83.34H103.418
			c-4.673-43.783-39.555-78.665-83.34-83.34v-80.105c43.784-4.674,78.666-39.557,83.34-83.34h173.825
			c5.544,0,10.039-4.496,10.039-10.039s-4.496-10.039-10.039-10.039H10.039C4.496,112.53,0,117.025,0,122.569v266.862
			c0,5.544,4.496,10.039,10.039,10.039h491.922c5.544,0,10.039-4.496,10.039-10.039V122.569
			C512,117.024,507.504,112.53,501.961,112.53z M20.078,132.608h63.099c-4.466,32.695-30.404,58.632-63.099,63.098V132.608z
			 M20.078,379.392v-63.098c32.695,4.466,58.632,30.404,63.099,63.098H20.078z M491.922,379.392h-63.098
			c4.466-32.695,30.404-58.632,63.098-63.098V379.392z M491.922,195.706c-32.695-4.466-58.632-30.404-63.098-63.098h63.098V195.706z
			"/>
	</g>
</g>
<g>
	<g>
		<path d="M259.664,245.96h-6.274c-4.158,0-7.54-3.382-7.54-7.539s3.382-7.539,7.54-7.539h14.738
			c5.544,0,10.039-4.496,10.039-10.039c0-5.544-4.496-10.039-10.039-10.039h-1.556v-5.421c0-5.544-4.496-10.039-10.039-10.039
			s-10.039,4.497-10.039,10.04v6.294c-11.902,3.071-20.722,13.898-20.722,26.745c0,15.229,12.389,27.618,27.619,27.618h6.274
			c4.157,0,7.539,3.382,7.539,7.539c0,4.157-3.382,7.539-7.539,7.539h-14.728c-5.544,0-10.039,4.496-10.039,10.039
			c0,5.544,4.496,10.039,10.039,10.039h1.556v5.421c0,5.544,4.496,10.039,10.039,10.039s10.039-4.496,10.039-10.039v-6.297
			c11.898-3.075,20.711-13.898,20.711-26.743C287.282,258.349,274.893,245.96,259.664,245.96z"/>
	</g>
</g>
<g>
	<g>
		<path d="M256.532,162.083c-51.786,0-93.917,42.131-93.917,93.917c0,51.786,42.131,93.917,93.917,93.917
			s93.917-42.131,93.917-93.917S308.318,162.083,256.532,162.083z M256.532,329.838c-40.715,0-73.838-33.123-73.838-73.838
			s33.123-73.838,73.838-73.838c40.715,0,73.838,33.123,73.838,73.838C330.371,296.715,297.247,329.838,256.532,329.838z"/>
	</g>
</g>
<g>
	<g>
		<path d="M309.542,114.113c-12.919,0-12.941,20.078,0,20.078C322.462,134.191,322.484,114.113,309.542,114.113z"/>
	</g>
</g>
<g>
</g>
<g>
</g>
<g>
</g>
<g>
</g>
<g>
</g>
<g>
</g>
<g>
</g>
<g>
</g>
<g>
</g>
<g>
</g>
<g>
</g>
<g>
</g>
<g>
</g>
<g>
</g>
<g>
</g>
</svg>
