<svg xmlns="http://www.w3.org/2000/svg" xmlns:xlink="http://www.w3.org/1999/xlink" width="235.4" height="236.87" viewBox="0 0 23.54 23.687">
  <metadata><?xpacket begin="﻿" id="W5M0MpCehiHzreSzNTczkc9d"?>
<x:xmpmeta xmlns:x="adobe:ns:meta/" x:xmptk="Adobe XMP Core 5.6-c142 79.160924, 2017/07/13-01:06:39        ">
   <rdf:RDF xmlns:rdf="http://www.w3.org/1999/02/22-rdf-syntax-ns#">
      <rdf:Description rdf:about=""/>
   </rdf:RDF>
</x:xmpmeta>
                                                                                                    
                                                                                                    
                                                                                                    
                                                                                                    
                                                                                                    
                                                                                                    
                                                                                                    
                                                                                                    
                                                                                                    
                                                                                                    
                                                                                                    
                                                                                                    
                                                                                                    
                                                                                                    
                                                                                                    
                                                                                                    
                                                                                                    
                                                                                                    
                                                                                                    
                                                                                                    
                           
<?xpacket end="w"?></metadata>
<defs>
    <style>
      .cls-1 {
        fill: #995c13;
        fill-rule: evenodd;
        filter: url(#filter);
      }
    </style>
    <filter id="filter" x="4991.34" y="551.844" width="23.54" height="23.687" filterUnits="userSpaceOnUse">
      <feFlood result="flood" flood-color="#995c13"/>
      <feComposite result="composite" operator="in" in2="SourceGraphic"/>
      <feBlend result="blend" in2="SourceGraphic"/>
    </filter>
  </defs>
  <path id="clock_icon" class="cls-1" d="M5006.85,563.16h-1.68a2.135,2.135,0,0,0-1.53-1.54v-3.844a0.53,0.53,0,0,0-.53-0.538,0.536,0.536,0,0,0-.53.538v3.844a2.147,2.147,0,1,0,2.59,2.617h1.68A0.539,0.539,0,0,0,5006.85,563.16Zm-3.74,1.615a1.077,1.077,0,1,1,1.07-1.077A1.074,1.074,0,0,1,5003.11,564.775Zm0-10.767a9.691,9.691,0,1,0,9.62,9.69A9.648,9.648,0,0,0,5003.11,554.008Zm0,18.3a8.614,8.614,0,1,1,8.55-8.614A8.584,8.584,0,0,1,5003.11,572.312Zm0-20.458a11.844,11.844,0,1,0,11.75,11.844A11.8,11.8,0,0,0,5003.11,551.854Zm0,22.612a10.768,10.768,0,1,1,10.68-10.768A10.724,10.724,0,0,1,5003.11,574.466Z" transform="translate(-4991.34 -551.844)"/>
</svg>
