<svg xmlns="http://www.w3.org/2000/svg" width="69" height="67" viewBox="0 0 69 67">
  <metadata><?xpacket begin="﻿" id="W5M0MpCehiHzreSzNTczkc9d"?>
<x:xmpmeta xmlns:x="adobe:ns:meta/" x:xmptk="Adobe XMP Core 5.6-c142 79.160924, 2017/07/13-01:06:39        ">
   <rdf:RDF xmlns:rdf="http://www.w3.org/1999/02/22-rdf-syntax-ns#">
      <rdf:Description rdf:about=""/>
   </rdf:RDF>
</x:xmpmeta>
                                                                                                    
                                                                                                    
                                                                                                    
                                                                                                    
                                                                                                    
                                                                                                    
                                                                                                    
                                                                                                    
                                                                                                    
                                                                                                    
                                                                                                    
                                                                                                    
                                                                                                    
                                                                                                    
                                                                                                    
                                                                                                    
                                                                                                    
                                                                                                    
                                                                                                    
                                                                                                    
                           
<?xpacket end="w"?></metadata>
<defs>
    <style>
      .cls-1 {
        fill: #fff;
        fill-opacity: 0;
        stroke: #d0d0d0;
        stroke-linejoin: round;
        stroke-width: 2px;
        fill-rule: evenodd;
      }
    </style>
  </defs>
  <path id="ico" class="cls-1" d="M1200,610a13.432,13.432,0,0,1,2.18-5.912c2.34-3.092,3.44-4.2,7.57-5.537,6.22-2.007,7.58-4.583,11.75-8.673,0.04-1.533.49-3.287,0.09-4.8-0.46-.892-0.93-1.784-1.39-2.676l-0.93-3.415c-1.9.468-3.69-5.757-4.09-7.381-0.28-1.156-.21-3.055.56-3.506a1.281,1.281,0,0,1,1.02-.278c-0.87-4.178-1.86-8.144-.74-12.918-0.13.032-.25,0.061-0.37,0.092a8.676,8.676,0,0,1,1.76-3.967l-0.93.368c0.1-.091.19-0.184,0.28-0.276,0.61-1.242,2.83-2.179,4.65-2.215,0.26-2.225,2.37-2.617,3.8-3.691,0.07,0.031.13,0.061,0.19,0.092l-0.84.831c1.38-.622,7.14-1.74,9.29-0.739v0.093c-1.36-.026-3.41-0.259-4.46.184,14.37-.053,21.09,7.908,18.4,22.146a1.112,1.112,0,0,1,1.48.555c0.82,1.358-2.14,9.669-3.15,10.61a1.605,1.605,0,0,1-1.03-.276c-0.27,4.036-2.92,6.087-2.23,10.611,1.7,3.973,3.81,5.367,5.96,6.292,5.63,2.431,13.36,3.9,16.1,8.288A16.152,16.152,0,0,1,1267,610h-67Z" transform="translate(-1199 -544)"/>
</svg>
