<?xml version="1.0" encoding="utf-8"?>
<!-- Generator: Adobe Illustrator 23.0.1, SVG Export Plug-In . SVG Version: 6.00 Build 0)  -->
<svg version="1.1" id="Capa_1" xmlns="http://www.w3.org/2000/svg" xmlns:xlink="http://www.w3.org/1999/xlink" x="0px" y="0px"
	 viewBox="0 0 512 374.6" style="enable-background:new 0 0 512 374.6;" xml:space="preserve">
<g>
	<g>
		<path d="M203.6,84.1c-1-19.1-9.7-39-10.1-39.9c-2-4.6-7-7.1-11.8-6c-14.4,3.2-40,23.9-45,28c-4.4,3.7-5.1,10.3-1.4,14.7
			c3.7,4.4,10.3,5.1,14.7,1.4c8.8-7.2,19.9-15.3,28-20c2.1,6.3,4.3,14.9,4.8,22.8c0.3,5.6,4.9,9.9,10.4,9.9c0.2,0,0.4,0,0.6,0
			C199.5,94.8,203.9,89.9,203.6,84.1z"/>
	</g>
</g>
<g>
	<g>
		<path d="M143.3,122.3c-17,0-30.8,13.8-30.8,30.8c0,5.8,4.7,10.4,10.4,10.4c5.8,0,10.4-4.7,10.4-10.4c0-5.4,4.4-9.9,9.9-9.9
			c5.5,0,9.9,4.4,9.9,9.9c0,5.8,4.7,10.4,10.4,10.4c5.8,0,10.4-4.7,10.4-10.4C174.1,136.1,160.3,122.3,143.3,122.3z"/>
	</g>
</g>
<g>
	<g>
		<path d="M377.2,213.3c-4.8-3.2-11.3-1.9-14.5,2.9c-8.6,12.8-20.4,24-35.2,33.3c-4.9,3.1-6.3,9.5-3.3,14.4c2,3.1,5.4,4.9,8.8,4.9
			c1.9,0,3.8-0.5,5.6-1.6c17.3-10.9,31.2-24.1,41.4-39.4C383.2,223,381.9,216.5,377.2,213.3z"/>
	</g>
</g>
<g>
	<g>
		<path d="M302.4,51.3c-19.4-6.4-40-9.6-61.2-9.6c-5.8,0-10.4,4.7-10.4,10.4c0,5.8,4.7,10.4,10.4,10.4c19,0,37.5,2.9,54.7,8.5
			c1.1,0.4,2.2,0.5,3.3,0.5c4.4,0,8.5-2.8,9.9-7.2C310.8,59,307.8,53.1,302.4,51.3z"/>
	</g>
</g>
<g>
	<g>
		<path d="M501.6,136h-45.5c-5.5,0-10.7,1.4-15.2,3.8c-7.3-34.2-26.9-65.7-57-90.6C345.7,17.5,295,0,241.1,0
			C199,0,158.8,10.6,124.6,30.8l-45.8-23c-3.3-1.7-7.3-1.4-10.4,0.6c-3.1,2.1-4.9,5.6-4.7,9.4l4.1,63.7C58.3,94.6,51,108.6,46,123.3
			H10.4C4.7,123.3,0,128,0,133.7v81.8c0,5.8,4.7,10.4,10.4,10.4h39c12.5,29.9,35.1,56.9,64.8,76.8v61.3c0,5.8,4.7,10.4,10.4,10.4
			H190c5.8,0,10.4-4.7,10.4-10.4v-27.4c26.7,4.5,54.6,4.5,81.3,0v27.4c0,5.8,4.7,10.4,10.4,10.4h65.4c5.8,0,10.4-4.7,10.4-10.4
			v-61.3c22.3-15,40.8-34,53.8-55.2c9.4-15.4,15.9-32.1,19.4-49.2c4.5,2.3,9.5,3.6,14.9,3.6c18.2,0,32.9-14.8,32.9-32.9
			c0-4.3-0.8-8.3-2.3-12.1h14.8c5.8,0,10.4-4.7,10.4-10.4C512,140.7,507.3,136,501.6,136z M104.7,44.1c-6.2,4.7-12,9.7-17.4,15
			l-1.6-24.5L104.7,44.1z M352,288.3c-3,1.9-4.9,5.2-4.9,8.8v56.5h-44.5V324c0-3.2-1.4-6.2-3.9-8.2c-2.5-2-5.7-2.7-8.8-2
			c-15.8,3.6-32.3,5.4-48.8,5.4s-32.9-1.8-48.8-5.4c-3.1-0.7-6.3,0-8.8,2c-2.5,2-3.9,5-3.9,8.2v29.7h-44.5v-56.5
			c0-3.6-1.8-6.9-4.9-8.8c-25.6-16.2-45.7-37.9-57.8-62.3h15.9c5.8,0,10.4-4.7,10.4-10.4c0-5.8-4.7-10.4-10.4-10.4H56.6H20.9v-61
			h32.8c4.7,0,8.8-3.1,10-7.6C68.2,120.4,76,105.1,86.8,91c11.6-15.2,26.4-28.5,43.9-39.5c32-20.1,70.2-30.7,110.5-30.7
			c100.4,0,182,66.9,182,149.2C423.2,216.7,397.2,259.8,352,288.3z M456.1,181c-6.6,0-12.1-5.4-12.1-12.1c0-6.7,5.4-12.1,12.1-12.1
			c6.7,0,12.1,5.4,12.1,12.1C468.2,175.6,462.8,181,456.1,181z"/>
	</g>
</g>
<g>
	<g>
		<path d="M383.7,186.6c-13.4,0-13.5,20.9,0,20.9C397.1,207.5,397.1,186.6,383.7,186.6z"/>
	</g>
</g>
</svg>
