<svg xmlns="http://www.w3.org/2000/svg" xmlns:xlink="http://www.w3.org/1999/xlink" width="18.34" height="18.59" viewBox="0 0 18.34 18.59">
  <metadata><?xpacket begin="﻿" id="W5M0MpCehiHzreSzNTczkc9d"?>
<x:xmpmeta xmlns:x="adobe:ns:meta/" x:xmptk="Adobe XMP Core 5.6-c142 79.160924, 2017/07/13-01:06:39        ">
   <rdf:RDF xmlns:rdf="http://www.w3.org/1999/02/22-rdf-syntax-ns#">
      <rdf:Description rdf:about=""/>
   </rdf:RDF>
</x:xmpmeta>
                                                                                                    
                                                                                                    
                                                                                                    
                                                                                                    
                                                                                                    
                                                                                                    
                                                                                                    
                                                                                                    
                                                                                                    
                                                                                                    
                                                                                                    
                                                                                                    
                                                                                                    
                                                                                                    
                                                                                                    
                                                                                                    
                                                                                                    
                                                                                                    
                                                                                                    
                                                                                                    
                           
<?xpacket end="w"?></metadata>
<defs>
    <style>
      .cls-1 {
        fill: #e2924a;
        fill-rule: evenodd;
        filter: url(#filter);
      }
    </style>
    <filter id="filter" x="1386.41" y="2174.41" width="18.34" height="18.59" filterUnits="userSpaceOnUse">
      <feFlood result="flood" flood-color="#ab5b13"/>
      <feComposite result="composite" operator="in" in2="SourceGraphic"/>
      <feBlend result="blend" in2="SourceGraphic"/>
    </filter>
  </defs>
  <path id="Shape_11_копия_4" data-name="Shape 11 копия 4" class="cls-1" d="M1397.66,2185.82H1396v1.69h1.66v-1.69Zm0,2.95H1396v1.69h1.66v-1.69Zm0-5.91H1396v1.69h1.66v-1.69Zm-2.5,2.96h-1.66v1.69h1.66v-1.69Zm7.5,0H1401v1.69h1.66v-1.69Zm0-2.96H1401v1.69h1.66v-1.69Zm-2.5,2.96h-1.66v1.69h1.66v-1.69Zm0-2.96h-1.66v1.69h1.66v-1.69Zm-5,0h-1.66v1.69h1.66v-1.69Zm-4.99,5.91h-1.67v1.69h1.67v-1.69Zm0-5.91h-1.67v1.69h1.67v-1.69Zm0,2.96h-1.67v1.69h1.67v-1.69Zm12.91-9.72h-1.67v-1.27a0.414,0.414,0,0,0-.41-0.42,0.423,0.423,0,0,0-.42.42v1.27h-10v-1.27a0.415,0.415,0,1,0-.83,0v1.27h-1.67a1.675,1.675,0,0,0-1.66,1.69v13.52a1.675,1.675,0,0,0,1.66,1.69h15a1.684,1.684,0,0,0,1.67-1.69v-13.52A1.684,1.684,0,0,0,1403.08,2176.1Zm0.84,15.21a0.839,0.839,0,0,1-.84.84h-15a0.83,0.83,0,0,1-.83-0.84v-10.14h16.67v10.14Zm0-10.99h-16.67v-2.53a0.839,0.839,0,0,1,.83-0.85h1.67v1.27a0.415,0.415,0,1,0,.83,0v-1.27h10v1.27a0.416,0.416,0,0,0,.42.42,0.408,0.408,0,0,0,.41-0.42v-1.27h1.67a0.847,0.847,0,0,1,.84.85v2.53Zm-11.26,2.54H1391v1.69h1.66v-1.69Zm2.5,5.91h-1.66v1.69h1.66v-1.69Zm-2.5,0H1391v1.69h1.66v-1.69Zm0-2.95H1391v1.69h1.66v-1.69Z" transform="translate(-1386.41 -2174.41)"/>
</svg>
