<?xml version="1.0" encoding="utf-8"?>
<!-- Generator: Adobe Illustrator 23.0.1, SVG Export Plug-In . SVG Version: 6.00 Build 0)  -->
<svg version="1.1" id="Слой_1" xmlns="http://www.w3.org/2000/svg" xmlns:xlink="http://www.w3.org/1999/xlink" x="0px" y="0px"
	 viewBox="0 0 116.3 116.1" style="enable-background:new 0 0 116.3 116.1;" xml:space="preserve">
<g>
	<g>
		<path d="M82.2,88c0.8,0.8,1.8,1.2,2.9,1.2s2.1-0.4,2.9-1.2l27-27c0.2-0.2,0.4-0.4,0.5-0.6c0,0,0.1-0.1,0.1-0.2
			c0.1-0.2,0.2-0.4,0.3-0.5c0-0.1,0-0.2,0.1-0.2c0.1-0.2,0.1-0.3,0.2-0.5c0.1-0.3,0.1-0.5,0.1-0.8s0-0.5-0.1-0.8
			c0-0.2-0.1-0.4-0.2-0.5c0-0.1,0-0.2-0.1-0.2c-0.1-0.2-0.2-0.4-0.3-0.6c0,0,0-0.1-0.1-0.1c-0.1-0.2-0.3-0.4-0.5-0.6l-27-27
			c-1.6-1.6-4.2-1.6-5.8,0c-1.6,1.6-1.6,4.2,0,5.8l20,20H31.1c-2.3,0-4.1,1.8-4.1,4.1s1.8,4.1,4.1,4.1h71.1l-20,20
			C80.6,83.8,80.6,86.4,82.2,88z"/>
		<path d="M4.1,116.1h54c2.3,0,4.1-1.8,4.1-4.1V71.7c0-2.3-1.8-4.1-4.1-4.1S54,69.4,54,71.7v36.2H8.2V8.2H54v36.2
			c0,2.3,1.8,4.1,4.1,4.1c2.3,0,4.1-1.8,4.1-4.1V4.1c0-2.3-1.8-4.1-4.1-4.1h-54C1.8,0,0,1.8,0,4.1V112
			C0.1,114.3,1.9,116.1,4.1,116.1z"/>
	</g>
</g>
</svg>
