<svg width="8" height="14" viewBox="0 0 8 14" fill="none" xmlns="http://www.w3.org/2000/svg">
  <path
    d="M0.689674 7.4564H2.2243V13.7742C2.2243 13.8989 2.32537 14 2.45011 14H5.05212C5.17686 14 5.27793 13.8989 5.27793 13.7742V7.48616H7.04211C7.15682 7.48616 7.25333 7.40008 7.26642 7.28614L7.53437 4.96025C7.54173 4.89625 7.52145 4.83217 7.47864 4.78416C7.43578 4.73611 7.37445 4.70861 7.31009 4.70861H5.27802V3.25062C5.27802 2.81111 5.51466 2.58824 5.98145 2.58824C6.04797 2.58824 7.31009 2.58824 7.31009 2.58824C7.43483 2.58824 7.5359 2.48712 7.5359 2.36243V0.227477C7.5359 0.102742 7.43483 0.00167097 7.31009 0.00167097H5.47903C5.46611 0.00103871 5.43744 0 5.39516 0C5.07745 0 3.97313 0.0623677 3.10079 0.864884C2.13425 1.7542 2.2686 2.81901 2.30071 3.00363V4.70856H0.689674C0.564938 4.70856 0.463867 4.80963 0.463867 4.93437V7.23055C0.463867 7.35528 0.564938 7.4564 0.689674 7.4564Z"
    fill="#8B96A3"/>
</svg>
