<svg width="16" height="16" viewBox="0 0 16 16" fill="none" xmlns="http://www.w3.org/2000/svg">
<path fill-rule="evenodd" clip-rule="evenodd" d="M15.58 2.6064C15.8129 3.19349 15.9386 3.81362 15.9519 4.44041C15.9908 5.2463 16 5.50358 16 7.55556C16 9.60754 15.9908 9.86481 15.9519 10.6707C15.9386 11.2975 15.8128 11.9176 15.58 12.5047C15.1644 13.5196 14.3149 14.3219 13.2403 14.7145C12.6187 14.9344 11.9621 15.0531 11.2984 15.0657C10.4451 15.1025 10.1727 15.1111 8 15.1111C5.82732 15.1111 5.55491 15.1025 4.70161 15.0657C4.03795 15.0531 3.38134 14.9344 2.75972 14.7145C2.22589 14.5248 1.74232 14.2274 1.34272 13.843C0.935755 13.4656 0.620854 13.0089 0.419973 12.5047C0.187148 11.9176 0.0614165 11.2975 0.0481244 10.6707C0.00922667 9.86481 0 9.60754 0 7.55556C0 5.50358 0.00922667 5.2463 0.0481244 4.44041C0.0614165 3.81362 0.187148 3.19349 0.419973 2.6064C0.620854 2.10224 0.935755 1.64554 1.34272 1.26812C1.74233 0.883769 2.2259 0.586362 2.75972 0.396642C3.38134 0.176751 4.03795 0.0580045 4.70161 0.0454509C5.55491 0.00871407 5.82732 0 8 0C10.1727 0 10.4451 0.00871407 11.2984 0.0454509C11.9621 0.0580045 12.6187 0.176751 13.2403 0.396642C13.7741 0.586362 14.2577 0.883769 14.6573 1.26812C15.0642 1.64554 15.3791 2.10224 15.58 2.6064ZM3.8916 7.55177C3.8916 5.40896 5.73087 3.67188 7.99973 3.67188C10.2686 3.6719 12.1078 5.40897 12.1079 7.55177C12.1079 9.69458 10.2686 11.4317 7.99973 11.4317C5.73087 11.4317 3.8916 9.69458 3.8916 7.55177ZM8.00004 10.0693C6.52728 10.0693 5.33337 8.94168 5.33337 7.55075C5.33337 6.15981 6.52728 5.03223 8.00004 5.03223C9.4728 5.03223 10.6667 6.15981 10.6667 7.55075C10.6667 8.2187 10.3858 8.85929 9.88566 9.33161C9.38556 9.80392 8.70728 10.0693 8.00004 10.0693ZM12.2704 4.42954C12.8006 4.42954 13.2304 4.02362 13.2304 3.52288C13.2304 3.02214 12.8006 2.61621 12.2704 2.61621C11.7402 2.61621 11.3104 3.02214 11.3104 3.52288C11.3104 4.02362 11.7402 4.42954 12.2704 4.42954Z" fill="#465078"/>
</svg>
