<?xml version="1.0" encoding="utf-8"?>
<!-- Generator: Adobe Illustrator 23.0.1, SVG Export Plug-In . SVG Version: 6.00 Build 0)  -->
<svg version="1.1" id="icon_logo_head" xmlns="http://www.w3.org/2000/svg" xmlns:xlink="http://www.w3.org/1999/xlink" x="0px"
	 y="0px" viewBox="0 0 21.3 21.4" style="enable-background:new 0 0 21.3 21.4;" xml:space="preserve" fill="#e08524">
<path d="M10.6,0C4.8,0,0,4.8,0,10.7c0,5.9,4.7,10.7,10.6,10.7s10.6-4.8,10.6-10.7C21.3,4.8,16.5,0,10.6,0z M10.6,20.9
	c-5.5,0-10-4.5-10-10.1c0-5.6,4.5-10.1,10-10.1s10,4.5,10,10.1C20.7,16.3,16.2,20.9,10.6,20.9L10.6,20.9z M16.1,6.5
	c-0.9-2-1.9-2.8-2.3-2.8c-0.5,0-0.6,1-0.5,1.4c0,0.1,0,0.8,0.2,1.3c0.1,0.4,0.2,0.8,0.3,1.2v0c0.1,0.2,0.2,0.4,0.2,0.6
	c0.6,1.7,0.2,3.5,0.2,3.6v-0.1c-0.1,0.4-0.2,0.7-0.3,0.9c0,0.1,0,0.1-0.1,0.1c-0.7-2.8-2.2-4.7-2.5-4.4c-0.3,0.3-0.6,2.7,0.1,5.6
	c0.6,2.3,1.7,4,1.8,4.3c0,0,4-2.7,3.7-7.9C17,8.7,16.6,7.5,16.1,6.5z M7.3,12.8c0-0.1,0-0.1-0.1-0.1c-0.1-0.2-0.2-0.5-0.3-0.9v0.1
	c0-0.1-0.4-1.9,0.1-3.6c0.1-0.2,0.1-0.4,0.2-0.6v0c0.1-0.4,0.3-0.8,0.3-1.2c0.1-0.5,0.2-1.2,0.2-1.3c0-0.4,0-1.4-0.5-1.4
	C7,3.7,5.9,4.5,5.1,6.5c-0.5,1-0.9,2.2-0.9,3.9c-0.2,5.2,3.7,7.9,3.7,7.9c0.2-0.3,1.3-1.9,1.8-4.3c0.7-2.9,0.4-5.3,0.1-5.6
	C9.5,8.1,7.9,10.1,7.3,12.8L7.3,12.8z"/>
<path d="M17.1,10.4c-0.1-1.7-0.5-2.9-0.9-3.9c-0.9-2-1.9-2.8-2.3-2.8c-0.5,0-0.6,1-0.5,1.4c0,0.1,0,0.8,0.2,1.3
	c0.1,0.4,0.2,0.8,0.3,1.2v0c0.1,0.2,0.2,0.4,0.2,0.6c0.6,1.7,0.2,3.5,0.2,3.6v-0.1c-0.1,0.4-0.2,0.7-0.3,0.9c0,0.1,0,0.1-0.1,0.1
	c-0.7-2.8-2.2-4.7-2.5-4.4c-0.3,0.3-0.6,2.7,0.1,5.6c0.6,2.3,1.7,4,1.8,4.3C13.4,18.3,17.3,15.6,17.1,10.4L17.1,10.4z M7.3,12.8
	c0-0.1,0-0.1-0.1-0.1c-0.1-0.2-0.2-0.5-0.3-0.9v0.1c0-0.1-0.4-1.9,0.1-3.6c0.1-0.2,0.1-0.4,0.2-0.6v0c0.1-0.4,0.3-0.8,0.3-1.2
	c0.1-0.5,0.2-1.2,0.2-1.3c0-0.4,0-1.4-0.5-1.4C7,3.7,5.9,4.5,5.1,6.5c-0.5,1-0.9,2.2-0.9,3.9c-0.2,5.2,3.7,7.9,3.7,7.9
	c0.2-0.3,1.3-1.9,1.8-4.3c0.7-2.9,0.4-5.3,0.1-5.6C9.5,8.1,7.9,10.1,7.3,12.8z"/>
</svg>
