<svg width="16" height="9" viewBox="0 0 16 9" fill="none" xmlns="http://www.w3.org/2000/svg">
<path d="M8.78466 8.85174C8.78466 8.85174 9.07343 8.82049 9.22133 8.66579C9.35672 8.52405 9.35202 8.25657 9.35202 8.25657C9.35202 8.25657 9.33402 7.00755 9.92955 6.82313C10.5165 6.64176 11.2701 8.031 12.0699 8.5652C12.674 8.96909 13.1326 8.8807 13.1326 8.8807L15.2697 8.85174C15.2697 8.85174 16.3872 8.78468 15.8574 7.92888C15.8136 7.85877 15.5483 7.2956 14.2688 6.13879C12.9283 4.92788 13.1083 5.12373 14.722 3.02882C15.7048 1.75313 16.0977 0.974298 15.9748 0.641277C15.8582 0.322735 15.1351 0.407324 15.1351 0.407324L12.7296 0.421803C12.7296 0.421803 12.5511 0.398179 12.4189 0.475147C12.2898 0.550592 12.206 0.726628 12.206 0.726628C12.206 0.726628 11.8257 1.7135 11.3178 2.55329C10.2465 4.32432 9.81843 4.41806 9.64313 4.30832C9.23542 4.05151 9.33715 3.27801 9.33715 2.72857C9.33715 1.01164 9.60479 0.296063 8.81675 0.110882C8.55537 0.0491546 8.36286 0.00876529 7.69377 0.00190671C6.83531 -0.00647598 6.10909 0.00495497 5.69746 0.200805C5.42357 0.331118 5.21228 0.622225 5.3414 0.638991C5.50026 0.659566 5.86023 0.733487 6.05118 0.986491C6.29769 1.31342 6.28908 2.04652 6.28908 2.04652C6.28908 2.04652 6.43072 4.06751 5.95806 4.31823C5.63408 4.49045 5.18958 4.13914 4.23407 2.53195C3.74497 1.70893 3.37561 0.799024 3.37561 0.799024C3.37561 0.799024 3.30439 0.629084 3.17683 0.537637C3.02267 0.427137 2.80747 0.392845 2.80747 0.392845L0.521607 0.407324C0.521607 0.407324 0.178063 0.416469 0.0520703 0.562023C-0.0598359 0.690811 0.0434621 0.958295 0.0434621 0.958295C0.0434621 0.958295 1.83318 5.03609 3.86001 7.09137C5.71859 8.97519 7.82837 8.85174 7.82837 8.85174H8.78466Z" fill="#A2ABB6"/>
</svg>
