<svg xmlns="http://www.w3.org/2000/svg"><defs><filter id="filter" x="1386.41" y="2174.41" width="18.34" height="18.59" filterUnits="userSpaceOnUse"><feFlood result="flood" flood-color="#ab5b13"/><feComposite result="composite" operator="in" in2="SourceGraphic"/><feBlend result="blend" in2="SourceGraphic"/></filter><filter id="filter" x="4991.34" y="551.844" width="23.54" height="23.687" filterUnits="userSpaceOnUse"><feFlood result="flood" flood-color="#995c13"/><feComposite result="composite" operator="in" in2="SourceGraphic"/><feBlend result="blend" in2="SourceGraphic"/></filter></defs><symbol id="icon_advantage_calendar" viewBox="0 0 18.34 18.59"><path id="Shape_11_копия_4" class="cls-1" d="M1397.66 2185.82H1396v1.69h1.66v-1.69zm0 2.95H1396v1.69h1.66v-1.69zm0-5.91H1396v1.69h1.66v-1.69zm-2.5 2.96h-1.66v1.69h1.66v-1.69zm7.5 0H1401v1.69h1.66v-1.69zm0-2.96H1401v1.69h1.66v-1.69zm-2.5 2.96h-1.66v1.69h1.66v-1.69zm0-2.96h-1.66v1.69h1.66v-1.69zm-5 0h-1.66v1.69h1.66v-1.69zm-4.99 5.91h-1.67v1.69h1.67v-1.69zm0-5.91h-1.67v1.69h1.67v-1.69zm0 2.96h-1.67v1.69h1.67v-1.69zm12.91-9.72h-1.67v-1.27a.414.414 0 0 0-.41-.42.423.423 0 0 0-.42.42v1.27h-10v-1.27a.415.415 0 1 0-.83 0v1.27h-1.67a1.675 1.675 0 0 0-1.66 1.69v13.52a1.675 1.675 0 0 0 1.66 1.69h15a1.684 1.684 0 0 0 1.67-1.69v-13.52a1.684 1.684 0 0 0-1.67-1.69zm.84 15.21a.839.839 0 0 1-.84.84h-15a.83.83 0 0 1-.83-.84v-10.14h16.67v10.14zm0-10.99h-16.67v-2.53a.839.839 0 0 1 .83-.85h1.67v1.27a.415.415 0 1 0 .83 0v-1.27h10v1.27a.416.416 0 0 0 .42.42.408.408 0 0 0 .41-.42v-1.27h1.67a.847.847 0 0 1 .84.85v2.53zm-11.26 2.54H1391v1.69h1.66v-1.69zm2.5 5.91h-1.66v1.69h1.66v-1.69zm-2.5 0H1391v1.69h1.66v-1.69zm0-2.95H1391v1.69h1.66v-1.69z" transform="translate(-1386.41 -2174.41)"/></symbol><symbol id="icon_advantage_clock" viewBox="0 0 23.54 23.687"><path id="clock_icon" class="cls-1" d="M5006.85 563.16h-1.68a2.135 2.135 0 0 0-1.53-1.54v-3.844a.53.53 0 0 0-.53-.538.536.536 0 0 0-.53.538v3.844a2.147 2.147 0 1 0 2.59 2.617h1.68a.539.539 0 0 0 0-1.077zm-3.74 1.615a1.077 1.077 0 1 1 1.07-1.077 1.074 1.074 0 0 1-1.07 1.077zm0-10.767a9.691 9.691 0 1 0 9.62 9.69 9.648 9.648 0 0 0-9.62-9.69zm0 18.3a8.614 8.614 0 1 1 8.55-8.614 8.584 8.584 0 0 1-8.55 8.618zm0-20.458a11.844 11.844 0 1 0 11.75 11.844 11.8 11.8 0 0 0-11.75-11.84zm0 22.612a10.768 10.768 0 1 1 10.68-10.768 10.724 10.724 0 0 1-10.68 10.772z" transform="translate(-4991.34 -551.844)"/></symbol><symbol id="icon_advantage_hands" viewBox="0 0 474.2 414.5"><path d="M465.9 236.2c-4.8 0-8.8 3.9-8.8 8.8v25.8c0 28.9-11.3 56-31.7 76.4l-16.6 16.6c-1.7 1.6-2.6 3.9-2.6 6.2v35.7c0 4.8 3.9 8.8 8.8 8.8s8.8-3.9 8.8-8.8v-32.1l14.1-14c23.8-23.7 36.9-55.3 36.9-88.8V245c-.1-4.8-4.1-8.8-8.9-8.8zm6.2-28.6c-1.6-1.6-3.9-2.6-6.2-2.6-2.3 0-4.6.9-6.2 2.6-1.6 1.6-2.6 3.9-2.6 6.2 0 2.3.9 4.6 2.6 6.2 1.6 1.6 3.9 2.6 6.2 2.6 2.3 0 4.6-.9 6.2-2.6 1.6-1.6 2.6-3.9 2.6-6.2 0-2.3-1-4.5-2.6-6.2zM291.2 363.8l-25.7-25.7c-11.9-11.9-20.8-26.2-26.1-42-2.5 6.5-7 12.4-12 17.5 6.2 13.7 14.8 26.2 25.6 37l23.2 23.1v32.1c0 4.8 3.9 8.8 8.8 8.8s8.8-3.9 8.8-8.8V370c0-2.4-.9-4.6-2.6-6.2zm150.9-258c-5.5 0-10.7 1.4-15.2 3.8-2-16.1-15.7-28.7-32.3-28.7-5.6 0-10.9 1.4-15.5 3.9-2.9-15-16.1-26.4-32-26.4-15.9 0-29.1 11.4-32 26.4-4.6-2.5-9.9-3.9-15.5-3.9-18 0-32.6 14.6-32.6 32.6V199c-.1-.1-.2-.3-.3-.4 0 1.2-.2 2.3-1 3.3-.1 7.3-.6 14.7-3.8 21.4-1 2.1-2.4 3.9-4 5.6l2.4 10c1.5 6.1 7.1 10 13.4 9.3 6.3-.8 10.8-5.9 10.8-12.2V113.5c0-8.3 6.7-15 15-15 7.8 0 14.2 5.9 14.9 13.5v64.4c0 4.8 3.9 8.8 8.8 8.8 4.8 0 8.8-3.9 8.8-8.8v-62.8c0-.7 0-1.5-.1-2.2V91c0-8.3 6.7-15 15-15s15 6.7 15 15v20.3c-.1.7-.1 1.5-.1 2.2v62.8c0 4.8 3.9 8.8 8.8 8.8 4.8 0 8.8-3.9 8.8-8.8V112c.8-7.6 7.2-13.5 14.9-13.5 8.3 0 15 6.7 15 15l-.1 62.8c0 4.8 3.9 8.8 8.8 8.8 4.8 0 8.8-3.9 8.8-8.8v-39.5c.8-7.6 7.2-13.5 14.9-13.5 8.3 0 15 6.7 15 15v41c0 4.8 3.9 8.8 8.8 8.8s8.8-3.9 8.8-8.8v-41c.4-17.9-14.3-32.5-32.2-32.5zM0 245v25.8c0 33.6 13.1 65.1 36.9 88.8l14.1 14v32.1c0 4.8 3.9 8.8 8.8 8.8s8.8-3.9 8.8-8.8V370c0-2.3-.9-4.6-2.6-6.2l-16.6-16.6c-20.5-20.4-31.7-47.5-31.7-76.4V245c0-4.8-3.9-8.8-8.8-8.8-5 0-8.9 4-8.9 8.8zm0-31.2c0 2.3.9 4.6 2.6 6.2 1.6 1.6 3.9 2.6 6.2 2.6s4.6-.9 6.2-2.6c1.6-1.6 2.6-3.9 2.6-6.2 0-2.3-.9-4.6-2.6-6.2-1.6-1.6-3.9-2.6-6.2-2.6s-4.6.9-6.2 2.6c-1.7 1.7-2.6 3.9-2.6 6.2z"/><path d="M0 138.4v41c0 4.8 3.9 8.8 8.8 8.8s8.8-3.9 8.8-8.8v-41c0-8.3 6.7-15 15-15 7.8 0 14.2 5.9 14.9 13.5v39.5c0 4.8 3.9 8.8 8.8 8.8 4.8 0 8.8-3.9 8.8-8.8l-.1-62.8c0-8.3 6.7-15 15-15 7.8 0 14.2 5.9 14.9 13.5v64.4c0 4.8 3.9 8.8 8.8 8.8 4.8 0 8.8-3.9 8.8-8.8v-62.8c0-.7 0-1.5-.1-2.2V91c0-8.3 6.7-15 15-15s15 6.7 15 15v20.3c-.1.7-.1 1.5-.1 2.2v62.8c0 4.8 3.9 8.8 8.8 8.8 4.8 0 8.8-3.9 8.8-8.8V112c.8-7.6 7.2-13.5 14.9-13.5 8.3 0 15 6.7 15 15V236c0 6.3 4.5 11.4 10.8 12.2 6.3.8 11.9-3.1 13.4-9.3l6.4-26.3c1.9-7.9 9.8-13 17.8-11.6 4.2.7 7.7 3 10.1 6.5 2.4 3.5 3.2 7.7 2.4 11.8l-12.5 63.2c-4.2 21.1-14.4 40.3-29.7 55.5l-25.7 25.7c-1.7 1.6-2.6 3.9-2.6 6.2v35.7c0 4.8 3.9 8.8 8.8 8.8s8.8-3.9 8.8-8.8v-32.1l23.2-23.1c17.7-17.7 29.7-40 34.5-64.6l12.5-63.2c1.7-8.8-.1-17.7-5.2-25.1-5.1-7.4-12.7-12.3-21.6-13.9-13.7-2.4-27 4-34 15.3v-85.4c0-18-14.6-32.6-32.6-32.6-5.6 0-10.9 1.4-15.5 3.9-2.9-15-16.1-26.4-32-26.4S98 69.8 95.1 84.8c-4.6-2.5-9.9-3.9-15.5-3.9-16.6 0-30.4 12.5-32.3 28.7a32.3 32.3 0 0 0-15.2-3.8C14.6 105.8 0 120.4 0 138.4zm267.7-89.5L221.4 2.6c-3.4-3.4-9-3.4-12.4 0-3.4 3.4-3.4 9 0 12.4l46.3 46.3c1.7 1.7 4 2.6 6.2 2.6s4.5-.9 6.2-2.6c3.4-3.4 3.4-9 0-12.4zm-31.1 23.5h-21.4c-4.8 0-8.8 3.9-8.8 8.8s3.9 8.8 8.8 8.8h21.4c4.8 0 8.8-3.9 8.8-8.8s-3.9-8.8-8.8-8.8zM287.2 0c-4.8 0-8.8 3.9-8.8 8.8v22.1c0 4.8 3.9 8.8 8.8 8.8 4.8 0 8.8-3.9 8.8-8.8V8.8c-.1-4.9-4-8.8-8.8-8.8z"/></symbol><symbol id="icon_advantage_info" viewBox="0 0 29.2 29.1"><path class="st0" d="M14.5 1C22 1 28 7 28 14.5S22 28 14.5 28 1 22 1 14.5 7 1 14.5 1z"/><path class="st0" d="M13 10.2h2V23h-2V10.2zM13 6h2v2h-2V6z"/></symbol><symbol id="icon_advantage_money" viewBox="0 0 512 512"><path d="M501.961 112.53H342.418c-5.544 0-10.039 4.496-10.039 10.039s4.496 10.039 10.039 10.039h66.164c4.674 43.784 39.557 78.666 83.34 83.34v80.105c-43.784 4.674-78.665 39.557-83.34 83.34H103.418c-4.673-43.783-39.555-78.665-83.34-83.34v-80.105c43.784-4.674 78.666-39.557 83.34-83.34h173.825c5.544 0 10.039-4.496 10.039-10.039s-4.496-10.039-10.039-10.039H10.039C4.496 112.53 0 117.025 0 122.569v266.862c0 5.544 4.496 10.039 10.039 10.039h491.922c5.544 0 10.039-4.496 10.039-10.039V122.569c0-5.545-4.496-10.039-10.039-10.039zM20.078 132.608h63.099c-4.466 32.695-30.404 58.632-63.099 63.098v-63.098zm0 246.784v-63.098c32.695 4.466 58.632 30.404 63.099 63.098H20.078zm471.844 0h-63.098c4.466-32.695 30.404-58.632 63.098-63.098v63.098zm0-183.686c-32.695-4.466-58.632-30.404-63.098-63.098h63.098v63.098z"/><path d="M259.664 245.96h-6.274c-4.158 0-7.54-3.382-7.54-7.539s3.382-7.539 7.54-7.539h14.738c5.544 0 10.039-4.496 10.039-10.039 0-5.544-4.496-10.039-10.039-10.039h-1.556v-5.421c0-5.544-4.496-10.039-10.039-10.039s-10.039 4.497-10.039 10.04v6.294c-11.902 3.071-20.722 13.898-20.722 26.745 0 15.229 12.389 27.618 27.619 27.618h6.274c4.157 0 7.539 3.382 7.539 7.539s-3.382 7.539-7.539 7.539h-14.728c-5.544 0-10.039 4.496-10.039 10.039 0 5.544 4.496 10.039 10.039 10.039h1.556v5.421c0 5.544 4.496 10.039 10.039 10.039s10.039-4.496 10.039-10.039v-6.297c11.898-3.075 20.711-13.898 20.711-26.743 0-15.229-12.389-27.618-27.618-27.618z"/><path d="M256.532 162.083c-51.786 0-93.917 42.131-93.917 93.917s42.131 93.917 93.917 93.917 93.917-42.131 93.917-93.917-42.131-93.917-93.917-93.917zm0 167.755c-40.715 0-73.838-33.123-73.838-73.838s33.123-73.838 73.838-73.838c40.715 0 73.838 33.123 73.838 73.838.001 40.715-33.123 73.838-73.838 73.838zm53.01-215.725c-12.919 0-12.941 20.078 0 20.078 12.92 0 12.942-20.078 0-20.078z"/></symbol><symbol id="icon_advantage_pig" viewBox="0 0 512 374.6"><path d="M203.6 84.1c-1-19.1-9.7-39-10.1-39.9-2-4.6-7-7.1-11.8-6-14.4 3.2-40 23.9-45 28-4.4 3.7-5.1 10.3-1.4 14.7 3.7 4.4 10.3 5.1 14.7 1.4 8.8-7.2 19.9-15.3 28-20 2.1 6.3 4.3 14.9 4.8 22.8.3 5.6 4.9 9.9 10.4 9.9h.6c5.7-.2 10.1-5.1 9.8-10.9zm-60.3 38.2c-17 0-30.8 13.8-30.8 30.8 0 5.8 4.7 10.4 10.4 10.4 5.8 0 10.4-4.7 10.4-10.4 0-5.4 4.4-9.9 9.9-9.9s9.9 4.4 9.9 9.9c0 5.8 4.7 10.4 10.4 10.4 5.8 0 10.4-4.7 10.4-10.4.2-17-13.6-30.8-30.6-30.8zm233.9 91c-4.8-3.2-11.3-1.9-14.5 2.9-8.6 12.8-20.4 24-35.2 33.3-4.9 3.1-6.3 9.5-3.3 14.4 2 3.1 5.4 4.9 8.8 4.9 1.9 0 3.8-.5 5.6-1.6 17.3-10.9 31.2-24.1 41.4-39.4 3.2-4.8 1.9-11.3-2.8-14.5zm-74.8-162c-19.4-6.4-40-9.6-61.2-9.6-5.8 0-10.4 4.7-10.4 10.4 0 5.8 4.7 10.4 10.4 10.4 19 0 37.5 2.9 54.7 8.5 1.1.4 2.2.5 3.3.5 4.4 0 8.5-2.8 9.9-7.2 1.7-5.3-1.3-11.2-6.7-13z"/><path d="M501.6 136h-45.5c-5.5 0-10.7 1.4-15.2 3.8-7.3-34.2-26.9-65.7-57-90.6C345.7 17.5 295 0 241.1 0 199 0 158.8 10.6 124.6 30.8l-45.8-23c-3.3-1.7-7.3-1.4-10.4.6-3.1 2.1-4.9 5.6-4.7 9.4l4.1 63.7C58.3 94.6 51 108.6 46 123.3H10.4C4.7 123.3 0 128 0 133.7v81.8c0 5.8 4.7 10.4 10.4 10.4h39c12.5 29.9 35.1 56.9 64.8 76.8V364c0 5.8 4.7 10.4 10.4 10.4H190c5.8 0 10.4-4.7 10.4-10.4v-27.4c26.7 4.5 54.6 4.5 81.3 0V364c0 5.8 4.7 10.4 10.4 10.4h65.4c5.8 0 10.4-4.7 10.4-10.4v-61.3c22.3-15 40.8-34 53.8-55.2 9.4-15.4 15.9-32.1 19.4-49.2 4.5 2.3 9.5 3.6 14.9 3.6 18.2 0 32.9-14.8 32.9-32.9 0-4.3-.8-8.3-2.3-12.1h14.8c5.8 0 10.4-4.7 10.4-10.4.2-5.8-4.5-10.5-10.2-10.5zM104.7 44.1c-6.2 4.7-12 9.7-17.4 15l-1.6-24.5 19 9.5zM352 288.3c-3 1.9-4.9 5.2-4.9 8.8v56.5h-44.5V324c0-3.2-1.4-6.2-3.9-8.2-2.5-2-5.7-2.7-8.8-2-15.8 3.6-32.3 5.4-48.8 5.4s-32.9-1.8-48.8-5.4c-3.1-.7-6.3 0-8.8 2-2.5 2-3.9 5-3.9 8.2v29.7h-44.5v-56.5c0-3.6-1.8-6.9-4.9-8.8-25.6-16.2-45.7-37.9-57.8-62.3h15.9c5.8 0 10.4-4.7 10.4-10.4 0-5.8-4.7-10.4-10.4-10.4H20.9v-61h32.8c4.7 0 8.8-3.1 10-7.6C68.2 120.4 76 105.1 86.8 91c11.6-15.2 26.4-28.5 43.9-39.5 32-20.1 70.2-30.7 110.5-30.7 100.4 0 182 66.9 182 149.2 0 46.7-26 89.8-71.2 118.3zM456.1 181c-6.6 0-12.1-5.4-12.1-12.1 0-6.7 5.4-12.1 12.1-12.1 6.7 0 12.1 5.4 12.1 12.1 0 6.7-5.4 12.1-12.1 12.1z"/><path d="M383.7 186.6c-13.4 0-13.5 20.9 0 20.9 13.4 0 13.4-20.9 0-20.9z"/></symbol><symbol id="icon_advantage_time" viewBox="0 0 44 44"><path id="time_ico" class="cls-1" d="M22 18a4 4 0 1 1-4 4 4 4 0 0 1 4-4zm0-14a18 18 0 1 0 18 18A18 18 0 0 0 22 4zm0 34a16 16 0 1 1 16-16 16 16 0 0 1-16 16zm0-14a2 2 0 1 1 2-2 2 2 0 0 1-2 2z"/><path class="cls-1" d="M22 0a22 22 0 1 0 22 22A22 22 0 0 0 22 0zm19.95 21H24.414l12.4-12.4A19.938 19.938 0 0 1 41.95 21zM22 42A20 20 0 1 1 35.4 7.188l-14.1 14.1A1 1 0 0 0 22 23h19.95A19.984 19.984 0 0 1 22 42z"/><path class="cls-2" d="M23 20L37 7a23.008 23.008 0 0 1 5 7 18.57 18.57 0 0 1 1 8H23v-2z"/></symbol><symbol id="icon_arrow_burger" viewBox="0 0 5.25 10.78"><path id="arrow_burger" class="cls-1" d="M1114 1120.38a.439.439 0 0 0-.31-.13.446.446 0 0 0-.44.45.463.463 0 0 0 .13.32l4.09 4.62-4.09 4.62a.445.445 0 0 0 .31.76.439.439 0 0 0 .31-.13l4.37-4.93a.482.482 0 0 0 .13-.32.445.445 0 0 0-.13-.32z" transform="translate(-1113.25 -1120.25)"/></symbol><symbol id="icon_arrow_left" viewBox="0 0 400 248.2"><path d="M382.7 106.8H59.1l77.2-77.2c6.8-6.8 6.8-17.7 0-24.5-6.8-6.8-17.7-6.8-24.5 0L5.1 111.8c-6.8 6.8-6.8 17.7 0 24.5l106.8 106.8c3.4 3.4 7.8 5.1 12.2 5.1 4.4 0 8.9-1.7 12.2-5.1 6.8-6.8 6.8-17.7 0-24.5l-77.2-77.2h323.6c9.6 0 17.3-7.8 17.3-17.3 0-9.6-7.7-17.3-17.3-17.3z"/></symbol><symbol id="icon_close" viewBox="0 0 47.971 47.971"><path d="M28.228 23.986L47.092 5.122a2.998 2.998 0 0 0 0-4.242 2.998 2.998 0 0 0-4.242 0L23.986 19.744 5.121.88a2.998 2.998 0 0 0-4.242 0 2.998 2.998 0 0 0 0 4.242l18.865 18.864L.879 42.85a2.998 2.998 0 1 0 4.242 4.241l18.865-18.864L42.85 47.091c.586.586 1.354.879 2.121.879s1.535-.293 2.121-.879a2.998 2.998 0 0 0 0-4.242L28.228 23.986z"/></symbol><symbol id="icon_exit" viewBox="0 0 116.3 116.1"><path d="M82.2 88c.8.8 1.8 1.2 2.9 1.2s2.1-.4 2.9-1.2l27-27c.2-.2.4-.4.5-.6 0 0 .1-.1.1-.2.1-.2.2-.4.3-.5 0-.1 0-.2.1-.2.1-.2.1-.3.2-.5.1-.3.1-.5.1-.8s0-.5-.1-.8c0-.2-.1-.4-.2-.5 0-.1 0-.2-.1-.2l-.3-.6s0-.1-.1-.1c-.1-.2-.3-.4-.5-.6l-27-27c-1.6-1.6-4.2-1.6-5.8 0-1.6 1.6-1.6 4.2 0 5.8l20 20H31.1c-2.3 0-4.1 1.8-4.1 4.1s1.8 4.1 4.1 4.1h71.1l-20 20c-1.6 1.4-1.6 4 0 5.6z"/><path d="M4.1 116.1h54c2.3 0 4.1-1.8 4.1-4.1V71.7c0-2.3-1.8-4.1-4.1-4.1S54 69.4 54 71.7v36.2H8.2V8.2H54v36.2c0 2.3 1.8 4.1 4.1 4.1s4.1-1.8 4.1-4.1V4.1c0-2.3-1.8-4.1-4.1-4.1h-54C1.8 0 0 1.8 0 4.1V112c.1 2.3 1.9 4.1 4.1 4.1z"/></symbol><symbol id="icon_fb" viewBox="0 0 8 14"><path d="M.69 7.456h1.534v6.318c0 .125.101.226.226.226h2.602a.226.226 0 0 0 .226-.226V7.486h1.764a.226.226 0 0 0 .224-.2l.268-2.326a.226.226 0 0 0-.224-.251H5.278V3.25c0-.44.237-.663.703-.663h1.33a.226.226 0 0 0 .225-.226V.227A.226.226 0 0 0 7.31.002H5.48L5.395 0c-.318 0-1.422.062-2.294.865-.967.89-.832 1.954-.8 2.139v1.705H.69a.226.226 0 0 0-.226.225v2.297c0 .124.1.225.226.225z"/></symbol><symbol id="icon_instagram" viewBox="0 0 16 16"><path fill-rule="evenodd" clip-rule="evenodd" d="M15.58 2.606c.233.587.359 1.208.372 1.834.039.806.048 1.064.048 3.116s-.01 2.309-.048 3.115a5.276 5.276 0 0 1-.372 1.834c-.416 1.015-1.265 1.817-2.34 2.21a6.178 6.178 0 0 1-1.942.35c-.853.037-1.125.046-3.298.046s-2.445-.009-3.298-.045a6.178 6.178 0 0 1-1.942-.352 3.95 3.95 0 0 1-1.417-.871 3.69 3.69 0 0 1-.923-1.338 5.275 5.275 0 0 1-.372-1.834C.01 9.865 0 9.608 0 7.556c0-2.052.01-2.31.048-3.116A5.275 5.275 0 0 1 .42 2.606c.2-.504.516-.96.923-1.338.4-.384.883-.682 1.417-.871A6.177 6.177 0 0 1 4.702.045C5.555.01 5.827 0 8 0s2.445.009 3.298.045c.664.013 1.32.132 1.942.352.534.19 1.018.487 1.417.871.407.378.722.834.923 1.338zM3.892 7.552c0-2.143 1.839-3.88 4.108-3.88 2.269 0 4.108 1.737 4.108 3.88s-1.84 3.88-4.108 3.88c-2.27 0-4.108-1.737-4.108-3.88zM8 10.069c-1.473 0-2.667-1.127-2.667-2.518C5.333 6.16 6.527 5.032 8 5.032c1.473 0 2.667 1.128 2.667 2.519a2.45 2.45 0 0 1-.781 1.78c-.5.473-1.179.738-1.886.738zm4.27-5.64c.53 0 .96-.405.96-.906 0-.5-.43-.907-.96-.907s-.96.406-.96.907c0 .5.43.907.96.907z"/></symbol><symbol id="icon_logo" viewBox="0 0 21.3 21.4"><path d="M10.6 0C4.8 0 0 4.8 0 10.7c0 5.9 4.7 10.7 10.6 10.7s10.6-4.8 10.6-10.7C21.3 4.8 16.5 0 10.6 0zm0 20.9c-5.5 0-10-4.5-10-10.1S5.1.7 10.6.7s10 4.5 10 10.1c.1 5.5-4.4 10.1-10 10.1zm5.5-14.4c-.9-2-1.9-2.8-2.3-2.8-.5 0-.6 1-.5 1.4 0 .1 0 .8.2 1.3l.3 1.2c.1.2.2.4.2.6.6 1.7.2 3.5.2 3.6v-.1c-.1.4-.2.7-.3.9 0 .1 0 .1-.1.1-.7-2.8-2.2-4.7-2.5-4.4-.3.3-.6 2.7.1 5.6.6 2.3 1.7 4 1.8 4.3 0 0 4-2.7 3.7-7.9.1-1.6-.3-2.8-.8-3.8zm-8.8 6.3c0-.1 0-.1-.1-.1-.1-.2-.2-.5-.3-.9v.1c0-.1-.4-1.9.1-3.6.1-.2.1-.4.2-.6.1-.4.3-.8.3-1.2.1-.5.2-1.2.2-1.3 0-.4 0-1.4-.5-1.4-.2-.1-1.3.7-2.1 2.7-.5 1-.9 2.2-.9 3.9-.2 5.2 3.7 7.9 3.7 7.9.2-.3 1.3-1.9 1.8-4.3.7-2.9.4-5.3.1-5.6-.3-.3-1.9 1.7-2.5 4.4z"/><path d="M17.1 10.4c-.1-1.7-.5-2.9-.9-3.9-.9-2-1.9-2.8-2.3-2.8-.5 0-.6 1-.5 1.4 0 .1 0 .8.2 1.3l.3 1.2c.1.2.2.4.2.6.6 1.7.2 3.5.2 3.6v-.1c-.1.4-.2.7-.3.9 0 .1 0 .1-.1.1-.7-2.8-2.2-4.7-2.5-4.4-.3.3-.6 2.7.1 5.6.6 2.3 1.7 4 1.8 4.3.1.1 4-2.6 3.8-7.8zm-9.8 2.4c0-.1 0-.1-.1-.1-.1-.2-.2-.5-.3-.9v.1c0-.1-.4-1.9.1-3.6.1-.2.1-.4.2-.6.1-.4.3-.8.3-1.2.1-.5.2-1.2.2-1.3 0-.4 0-1.4-.5-1.4-.2-.1-1.3.7-2.1 2.7-.5 1-.9 2.2-.9 3.9-.2 5.2 3.7 7.9 3.7 7.9.2-.3 1.3-1.9 1.8-4.3.7-2.9.4-5.3.1-5.6-.3-.3-1.9 1.7-2.5 4.4z"/></symbol><symbol id="icon_refresh" viewBox="0 0 612.035 612.035"><path d="M323.128 56.236l5.646-9.57 40.17-40.169C271.247-13.921 165.482 13.786 89.65 89.646-16.421 195.717-28.355 360.261 53.875 479.49L10.98 522.386l137.7 19.667-19.667-137.7-34.968 34.967c-60.978-96.724-49.322-226.078 34.94-310.34 53.244-53.243 124.486-77.501 194.143-72.744zm258.264 13.743l-137.7-19.667 19.668 137.7 38.25-38.25c78.726 98.31 72.521 242.186-18.583 333.317-61.116 61.117-145.989 84.039-224.882 68.739l-45.65 45.649c105.654 33.799 226.05 8.791 309.895-75.054 112.858-112.858 119.146-291.979 18.805-412.209l40.197-40.225z"/></symbol><symbol id="icon_star" viewBox="0 0 17.8 17.8"><path id="star" class="st0" d="M14.9 17.7l-6-4.4-6.1 4.4 2.4-7.3-5.2-4h6.5L8.9 0l2.4 6.5h6.5l-5.3 4 2.4 7.2z"/></symbol><symbol id="icon_vk" viewBox="0 0 16 9"><path d="M8.785 8.852s.288-.032.436-.186c.136-.142.131-.41.131-.41s-.018-1.248.578-1.433c.587-.181 1.34 1.208 2.14 1.742.604.404 1.063.316 1.063.316l2.137-.03s1.117-.066.587-.922c-.043-.07-.309-.633-1.588-1.79-1.34-1.211-1.16-1.015.453-3.11.983-1.276 1.376-2.055 1.253-2.388-.117-.318-.84-.234-.84-.234L12.73.422s-.179-.024-.311.053c-.13.076-.213.252-.213.252s-.38.987-.888 1.826c-1.072 1.771-1.5 1.865-1.675 1.755-.408-.256-.306-1.03-.306-1.58 0-1.716.268-2.432-.52-2.617C8.555.049 8.363.009 7.694 0c-.859-.007-1.585.004-1.997.2-.273.13-.485.421-.356.438.16.02.52.094.71.347.247.327.238 1.06.238 1.06s.142 2.022-.33 2.272c-.325.172-.77-.179-1.725-1.786A14.769 14.769 0 0 1 3.376.799s-.072-.17-.2-.261c-.153-.11-.369-.145-.369-.145L.522.407s-.344.01-.47.155C-.06.691.043.958.043.958s1.79 4.078 3.817 6.133c1.859 1.884 3.968 1.76 3.968 1.76h.957z"/></symbol></svg>