<svg id="Слой_1" xmlns="http://www.w3.org/2000/svg" viewBox="0 0 512 300.7"><style>.st0{fill:#e08524}</style><path class="st0" d="M502 88.2c5.5 0 10-4.5 10-10V10c0-5.5-4.5-10-10-10H10C4.5 0 0 4.5 0 10v68.1c0 5.5 4.5 10 10 10 34.3 0 62.2 27.9 62.2 62.2S44.3 212.5 10 212.5c-5.5 0-10 4.5-10 10v68.1c0 5.5 4.5 10 10 10h89.3c5.5 0 10-4.5 10-10s-4.5-10-10-10H20.1V232c40.6-5 72.2-39.7 72.2-81.6S60.7 73.7 20.1 68.7V20.1H365v20.1c0 5.5 4.5 10 10 10s10-4.5 10-10V20.1h106.8v48.6c-40.6 5-72.2 39.7-72.2 81.6s31.6 76.7 72.2 81.6v48.6H385.1v-20.1c0-5.5-4.5-10-10-10s-10 4.5-10 10v20.1H181.8c-5.5 0-10 4.5-10 10s4.5 10 10 10H502c5.5 0 10-4.5 10-10v-68.1c0-5.5-4.5-10-10-10-34.3 0-62.2-27.9-62.2-62.2s27.9-62 62.2-62z"/><path class="st0" d="M375.1 197.1c5.5 0 10-4.5 10-10v-73.5c0-5.5-4.5-10-10-10s-10 4.5-10 10v73.5c-.1 5.6 4.4 10 10 10zm-161.2-61c7.4-7.4 11.5-17.3 11.5-27.9 0-10.5-4.1-20.4-11.5-27.9-15.4-15.4-40.4-15.4-55.8 0-7.4 7.4-11.5 17.3-11.5 27.9 0 10.5 4.1 20.4 11.5 27.9 7.7 7.7 17.8 11.5 27.9 11.5 10.1.1 20.2-3.8 27.9-11.5zm-47.3-27.8c0-5.2 2-10 5.7-13.7 3.8-3.8 8.7-5.7 13.7-5.7s9.9 1.9 13.7 5.7c3.7 3.7 5.7 8.5 5.7 13.7 0 5.2-2 10-5.7 13.7-7.5 7.5-19.8 7.5-27.3 0-3.7-3.7-5.8-8.6-5.8-13.7zm81.6 61.1c-15.4 15.4-15.4 40.4 0 55.8 7.7 7.7 17.8 11.5 27.9 11.5 10.1 0 20.2-3.8 27.9-11.5 15.4-15.4 15.4-40.4 0-55.8-15.4-15.3-40.4-15.3-55.8 0zm41.6 14.2c7.5 7.5 7.5 19.8 0 27.3s-19.8 7.5-27.3 0-7.5-19.8 0-27.3c3.8-3.8 8.7-5.7 13.7-5.7s9.8 2 13.6 5.7zm-104.1 29L290.3 108c3.9-3.9 3.9-10.3 0-14.2-3.9-3.9-10.3-3.9-14.2 0L171.5 198.4c-3.6 3.6-3.9 9.6-.6 13.6 3.8 4.4 10.7 4.7 14.8.6zm-45.3 68c-4.2 0-8 2.7-9.4 6.6-1.4 3.9-.2 8.5 3 11.1 3.2 2.7 7.9 3 11.5.9 3.6-2.1 5.6-6.4 4.8-10.5-1-4.7-5.2-8.1-9.9-8.1z"/></svg>