<?xml version="1.0" encoding="utf-8"?>
<!-- Generator: Adobe Illustrator 23.0.1, SVG Export Plug-In . SVG Version: 6.00 Build 0)  -->
<svg version="1.1" id="Слой_1" xmlns="http://www.w3.org/2000/svg" xmlns:xlink="http://www.w3.org/1999/xlink" x="0px" y="0px"
	 viewBox="0 0 9 4" style="enable-background:new 0 0 9 4;" xml:space="preserve">
<style type="text/css">
	.st0{fill-rule:evenodd;clip-rule:evenodd;fill:#b0b0b0;}
</style>
<path id="_копия_18" class="st0" d="M8.9,0.6C9,0.5,9,0.4,9,0.3C9,0.1,8.8,0,8.6,0c0,0,0,0,0,0C8.5,0,8.4,0,8.4,0.1L4.5,3.2
	L0.6,0.1C0.6,0,0.5,0,0.4,0C0.2,0,0,0.1,0,0.3c0,0.1,0,0.2,0.1,0.2l4.1,3.3C4.3,4,4.4,4,4.5,4c0.1,0,0.2,0,0.3-0.1L8.9,0.6z"/>
</svg>
