<svg xmlns="http://www.w3.org/2000/svg" width="20" height="20" viewBox="0 0 20 20"><defs><clipPath id="khkpa"><path fill="#fff" d="M10 0c5.523 0 10 4.477 10 10 0 5.522-4.477 10-10 10-5.524 0-10-4.477-10-10S4.476 0 10 0z"/></clipPath><clipPath id="khkpb"><path d="M10 0c5.523 0 10 4.477 10 10 0 5.522-4.477 10-10 10-5.524 0-10-4.477-10-10S4.476 0 10 0z"/></clipPath></defs><g><g><path fill="#050608" d="M10 0c5.523 0 10 4.477 10 10 0 5.522-4.477 10-10 10-5.524 0-10-4.477-10-10S4.476 0 10 0z"/><path fill="none" stroke="#eee" stroke-miterlimit="50" stroke-width="2" d="M10 0c5.523 0 10 4.477 10 10 0 5.522-4.477 10-10 10-5.524 0-10-4.477-10-10S4.476 0 10 0z" clip-path="url(&quot;#khkpa&quot;)"/></g><g clip-path="url(#khkpb)"><path fill="#c4080c" d="M-5 13h29v7H-5z"/></g><g clip-path="url(#khkpb)"><path fill="#0c08c4" d="M-5 6h29v7H-5z"/></g><g clip-path="url(#khkpb)"><path fill="#fff" d="M-5-1h29v7H-5z"/></g></g></svg>