<?xml version="1.0" encoding="utf-8"?>
<!-- Generator: Adobe Illustrator 23.0.1, SVG Export Plug-In . SVG Version: 6.00 Build 0)  -->
<svg version="1.1" id="Слой_1" xmlns="http://www.w3.org/2000/svg" xmlns:xlink="http://www.w3.org/1999/xlink" x="0px" y="0px"
	 viewBox="0 0 512 300.7" style="enable-background:new 0 0 512 300.7;" xml:space="preserve">
<style type="text/css">
	.st0{fill:#E08524;}
</style>
<path class="st0" d="M502,88.2c5.5,0,10-4.5,10-10V10c0-5.5-4.5-10-10-10H10C4.5,0,0,4.5,0,10v68.1c0,5.5,4.5,10,10,10
	c34.3,0,62.2,27.9,62.2,62.2S44.3,212.5,10,212.5c-5.5,0-10,4.5-10,10v68.1c0,5.5,4.5,10,10,10h89.3c5.5,0,10-4.5,10-10
	s-4.5-10-10-10H20.1V232c40.6-5,72.2-39.7,72.2-81.6S60.7,73.7,20.1,68.7V20.1H365v20.1c0,5.5,4.5,10,10,10s10-4.5,10-10V20.1h106.8
	v48.6c-40.6,5-72.2,39.7-72.2,81.6s31.6,76.7,72.2,81.6v48.6H385.1v-20.1c0-5.5-4.5-10-10-10s-10,4.5-10,10v20.1H181.8
	c-5.5,0-10,4.5-10,10s4.5,10,10,10H502c5.5,0,10-4.5,10-10v-68.1c0-5.5-4.5-10-10-10c-34.3,0-62.2-27.9-62.2-62.2
	S467.7,88.2,502,88.2z"/>
<path class="st0" d="M375.1,197.1c5.5,0,10-4.5,10-10v-73.5c0-5.5-4.5-10-10-10s-10,4.5-10,10v73.5
	C365,192.7,369.5,197.1,375.1,197.1z"/>
<path class="st0" d="M213.9,136.1c7.4-7.4,11.5-17.3,11.5-27.9c0-10.5-4.1-20.4-11.5-27.9c-15.4-15.4-40.4-15.4-55.8,0
	c-7.4,7.4-11.5,17.3-11.5,27.9c0,10.5,4.1,20.4,11.5,27.9c7.7,7.7,17.8,11.5,27.9,11.5C196.1,147.7,206.2,143.8,213.9,136.1z
	 M166.6,108.3c0-5.2,2-10,5.7-13.7c3.8-3.8,8.7-5.7,13.7-5.7s9.9,1.9,13.7,5.7c3.7,3.7,5.7,8.5,5.7,13.7c0,5.2-2,10-5.7,13.7
	c-7.5,7.5-19.8,7.5-27.3,0C168.7,118.3,166.6,113.4,166.6,108.3z"/>
<path class="st0" d="M248.2,169.4c-15.4,15.4-15.4,40.4,0,55.8c7.7,7.7,17.8,11.5,27.9,11.5c10.1,0,20.2-3.8,27.9-11.5
	c15.4-15.4,15.4-40.4,0-55.8C288.6,154.1,263.6,154.1,248.2,169.4z M289.8,183.6c7.5,7.5,7.5,19.8,0,27.3s-19.8,7.5-27.3,0
	c-7.5-7.5-7.5-19.8,0-27.3c3.8-3.8,8.7-5.7,13.7-5.7S286,179.9,289.8,183.6z"/>
<path class="st0" d="M185.7,212.6L290.3,108c3.9-3.9,3.9-10.3,0-14.2c-3.9-3.9-10.3-3.9-14.2,0L171.5,198.4
	c-3.6,3.6-3.9,9.6-0.6,13.6C174.7,216.4,181.6,216.7,185.7,212.6z"/>
<path class="st0" d="M140.4,280.6c-4.2,0-8,2.7-9.4,6.6c-1.4,3.9-0.2,8.5,3,11.1c3.2,2.7,7.9,3,11.5,0.9c3.6-2.1,5.6-6.4,4.8-10.5
	C149.3,284,145.1,280.6,140.4,280.6z"/>
</svg>
